# xmcd CD database file
#
# Track frame offsets:
#	182
#	13617
#	28205
#	40395
#	52162
#	64492
#	79610
#	90157
#	103437
#	116640
#	131775
#	142280
#	155317
#	166335
#	178285
#	192255
#	202990
#	218817
#	240790
#
# Disc length: 3432 seconds
#
# Revision: 1
# Processed by: cddbd v1.5.1PL2 Copyright (c) Steve Scherf et al.
# Submitted via: CDex 1.51
#
DISCID=150d6613
DTITLE=GLen Campbell - Country Classics (RD) Cd 2 [Magical Memories of the 60s]
DYEAR=1900
DGENRE=Country
TTITLE0=Gentle On My Mind
TTITLE1=Little Green Apples (With Bobbie Gentry)
TTITLE2=Homeward Bound
TTITLE3=Take These Chains From My Heart
TTITLE4=It's Over
TTITLE5=God Only Knows
TTITLE6=Reason To Believe
TTITLE7=Turn Around, Look At Me
TTITLE8=Crying
TTITLE9=Scarborough Fair (With Bobbie Gentry)
TTITLE10=Catch The Wind
TTITLE11=Words
TTITLE12=Running Scared
TTITLE13=(Sittin' On The) Dock of the Bay
TTITLE14=Mary In The Morning
TTITLE15=Bowling Green
TTITLE16=He Ain't Heavy, He's My Brother
TTITLE17=MacArthur Park
TTITLE18=Oh Happy Day
EXTD=
EXTT0=
EXTT1=
EXTT2=
EXTT3=
EXTT4=
EXTT5=
EXTT6=
EXTT7=
EXTT8=
EXTT9=
EXTT10=
EXTT11=
EXTT12=
EXTT13=
EXTT14=
EXTT15=
EXTT16=
EXTT17=
EXTT18=
PLAYORDER=
